<?xml version="1.0" encoding="utf-8"?>
<!-- Generator: Adobe Illustrator 25.2.0, SVG Export Plug-In . SVG Version: 6.00 Build 0)  -->
<svg version="1.1" id="Capa_1" xmlns="http://www.w3.org/2000/svg" xmlns:xlink="http://www.w3.org/1999/xlink" x="0px" y="0px"
	 viewBox="0 0 168 168" style="enable-background:new 0 0 168 168;" xml:space="preserve">
<style type="text/css">
	.st0{opacity:0.8;fill:url(#SVGID_1_);enable-background:new    ;}
	.st1{display:none;fill:#FFFFFF;}
	.st2{fill:#FFFFFF;stroke:#FFFFFF;stroke-miterlimit:10;}
</style>
<linearGradient id="SVGID_1_" gradientUnits="userSpaceOnUse" x1="0.41" y1="83.795" x2="168" y2="83.795">
	<stop  offset="0" style="stop-color:#FFFFFF"/>
	<stop  offset="1.838229e-02" style="stop-color:#F3E4DE"/>
	<stop  offset="4.307275e-02" style="stop-color:#E5C5BA"/>
	<stop  offset="6.901925e-02" style="stop-color:#DAAC9B"/>
	<stop  offset="9.616578e-02" style="stop-color:#D19984"/>
	<stop  offset="0.125" style="stop-color:#CB8B73"/>
	<stop  offset="0.1568" style="stop-color:#C78369"/>
	<stop  offset="0.1971" style="stop-color:#C68066"/>
	<stop  offset="0.7968" style="stop-color:#FFDA3F"/>
	<stop  offset="0.8209" style="stop-color:#FFDB44"/>
	<stop  offset="0.8506" style="stop-color:#FFDE54"/>
	<stop  offset="0.8834" style="stop-color:#FFE36D"/>
	<stop  offset="0.9183" style="stop-color:#FFEA90"/>
	<stop  offset="0.955" style="stop-color:#FFF2BD"/>
	<stop  offset="0.9925" style="stop-color:#FFFDF3"/>
	<stop  offset="1" style="stop-color:#FFFFFF"/>
</linearGradient>
<path class="st0" d="M100.3,0L0.4,99.9v67.7L168,0H100.3z"/>
<path class="st1" d="M56.8,90.9l3.7-3.5l-18.7-9.3l-4,3.8l8.4,19.1l3.6-3.5l-1.5-3.3l5.3-5.1L56.8,90.9L56.8,90.9z M50.1,87.4
	l-3.5,3.3l-3.2-6.9L50.1,87.4L50.1,87.4z M58,74.8l-3.4-3.6l1.9-1.8c1.4-1.3,2.6-1.2,3.7-0.1c1,1.1,1.1,2.3-0.3,3.7L58,74.8z
	 M63.7,66c-2.5-2.6-6.1-2.9-9.6,0.4l-5.6,5.4L62,85.9l3.5-3.3l-4.9-5.1l2.1-2C66.4,72,65.9,68.3,63.7,66L63.7,66z M69.8,51.3
	l-8.7,8.3l13.6,14.2l8.7-8.3l-2.6-2.8l-5.2,5l-3-3.1l4.6-4.4l-2.6-2.7L70,62l-2.7-2.9l5.2-5L69.8,51.3L69.8,51.3z M76.4,45.1
	l13.6,14.2l8-7.6L95.4,49l-4.5,4.3l-11-11.5L76.4,45.1L76.4,45.1z M95.6,39l-3.4-3.6l1.9-1.8c1.4-1.3,2.6-1.2,3.7-0.1
	c1,1.1,1.1,2.3-0.3,3.7L95.6,39L95.6,39z M101.2,30.1c-2.5-2.6-6.1-2.9-9.6,0.4L86,35.9l13.6,14.2l3.5-3.3l-4.9-5.1l2.1-2
	C104,36.2,103.5,32.5,101.2,30.1z"/>
<g>
	<path class="st2" d="M39.6,102l1.8,4.2c0.4,0.9,0.3,1.7-0.3,2.3c-0.2,0.2-0.6,0.4-0.9,0.6c-0.7,0.2-1.2,0.1-1.7-0.3
		c-0.2-0.2-0.4-0.5-0.5-0.8L31,91.7c-0.6-1.4-0.5-2.6,0.4-3.5c0.9-0.9,2.1-1.1,3.6-0.5l16.2,6.9c0.3,0.1,0.6,0.3,0.8,0.6
		c0.4,0.4,0.5,1,0.3,1.6c-0.1,0.4-0.3,0.7-0.6,1c-0.6,0.6-1.4,0.7-2.3,0.3l-4.2-1.8L39.6,102z M34.2,90.9l3.9,8l4.1-4.1L34.2,90.9z"
		/>
	<path class="st2" d="M53.6,84.9l4.5,4.5c0.2,0.2,0.4,0.5,0.4,0.8c0.1,0.6-0.1,1.1-0.7,1.7c-0.5,0.5-0.9,0.7-1.5,0.7
		c-0.4,0-0.7-0.1-1-0.4L44,80.7c-1.5-1.5-1.5-3,0-4.5l3.3-3.3c1.5-1.5,3.1-2.5,4.7-2.9c2.1-0.5,4,0,5.5,1.5c1.7,1.7,2.3,3.5,1.8,5.5
		c-0.4,1.7-1.4,3.4-3.1,5.1L53.6,84.9z M51.3,82.7l2.8-2.8c1-1,1.5-1.9,1.6-2.8c0.1-0.9-0.2-1.8-1-2.5c-0.8-0.8-1.8-1.1-2.9-0.8
		c-0.7,0.2-1.5,0.7-2.3,1.5l-2.5,2.5c-0.3,0.3-0.3,0.6,0,0.9L51.3,82.7z"/>
	<path class="st2" d="M67.5,69.1l3.6,3.6c0.2,0.2,0.5,0.2,0.7,0l6.9-6.9c0.3-0.3,0.6-0.4,0.9-0.4c0.4,0,0.8,0.2,1.2,0.6
		c0.5,0.5,0.7,1,0.5,1.6c-0.1,0.2-0.2,0.4-0.3,0.6L73,76.2c-1.3,1.3-2.6,1.3-3.8,0L58.5,65.6c-1.3-1.3-1.3-2.6,0-3.8l7.8-7.8
		c0.2-0.2,0.5-0.4,0.8-0.4c0.5,0,0.9,0.2,1.3,0.6c0.5,0.5,0.6,1,0.5,1.5c-0.1,0.2-0.2,0.4-0.3,0.6l-6.6,6.6c-0.2,0.2-0.2,0.5,0,0.7
		l3.2,3.2l6.1-6.1c0.2-0.2,0.5-0.3,0.8-0.3c0.4,0,0.9,0.2,1.3,0.6c0.5,0.5,0.6,0.9,0.5,1.5c0,0.2-0.1,0.4-0.3,0.6L67.5,69.1z"/>
	<path class="st2" d="M81.9,40.2l10.7,10.7c0.3,0.3,0.6,0.3,0.8,0l6.3-6.3c0.2-0.2,0.4-0.3,0.6-0.4c0.5-0.1,1.1,0.1,1.6,0.6
		c0.4,0.4,0.6,0.9,0.6,1.4c0,0.3-0.1,0.6-0.4,0.9l-7.4,7.4c-1.4,1.4-2.8,1.4-4.1,0L79.1,42.9c-0.4-0.4-0.6-1-0.3-1.6
		c0.1-0.3,0.3-0.7,0.6-0.9c0.4-0.4,0.8-0.6,1.2-0.7C81.1,39.7,81.5,39.8,81.9,40.2z"/>
	<path class="st2" d="M103.6,34.8l4.5,4.5c0.2,0.2,0.4,0.5,0.4,0.8c0.1,0.6-0.1,1.1-0.7,1.7c-0.5,0.5-0.9,0.7-1.5,0.7
		c-0.4,0-0.7-0.1-1-0.4L94,30.7c-1.5-1.5-1.5-3,0-4.5l3.3-3.3c1.5-1.5,3.1-2.5,4.7-2.9c2.1-0.5,4,0,5.5,1.5c1.7,1.7,2.3,3.5,1.8,5.5
		c-0.4,1.7-1.4,3.4-3.1,5.1L103.6,34.8z M101.4,32.6l2.8-2.8c1-1,1.5-1.9,1.6-2.8c0.1-0.9-0.2-1.8-1-2.5c-0.8-0.8-1.8-1.1-2.9-0.8
		c-0.7,0.2-1.5,0.7-2.3,1.5l-2.5,2.5c-0.3,0.3-0.3,0.6,0,0.9L101.4,32.6z"/>
</g>
</svg>
